<svg xmlns="http://www.w3.org/2000/svg" viewBox="0 0 256 256" role="img" aria-label="备孕饭点图标">
  <rect width="256" height="256" rx="56" fill="#fff7ed"/>
  <circle cx="86" cy="100" r="42" fill="#0f766e"/>
  <circle cx="154" cy="92" r="34" fill="#f97316"/>
  <path fill="#202124" d="M65 157c24-22 85-23 125 0 10 6 14 18 8 28-7 12-25 21-68 21s-65-9-72-21c-6-10-3-21 7-28Z"/>
  <path fill="#ffffff" d="M82 162c30-13 67-13 100 0-9 12-26 22-50 22-23 0-41-9-50-22Z"/>
  <path fill="#facc15" d="M119 46c4-10 18-10 22 0l6 17 17-6c10-4 20 6 16 16l-6 17 17 6c10 4 10 18 0 22l-17 6 6 17c4 10-6 20-16 16l-17-6-6 17c-4 10-18 10-22 0l-6-17-17 6c-10 4-20-6-16-16l6-17-17-6c-10-4-10-18 0-22l17-6-6-17c-4-10 6-20 16-16l17 6 6-17Z" opacity=".9"/>
</svg>
